<?xml version="1.0" encoding="UTF-8" standalone="no"?>
<svg width="120px" height="44px" viewBox="0 0 120 44" version="1.1" xmlns="http://www.w3.org/2000/svg" xmlns:xlink="http://www.w3.org/1999/xlink">
    <!-- Generator: Sketch 40.2 (33826) - http://www.bohemiancoding.com/sketch -->
    <title>NoA small logo</title>
    <desc>Created with Sketch.</desc>
    <defs></defs>
    <g id="Page-1" stroke="none" stroke-width="1" fill="none" fill-rule="evenodd">
        <g id="NoA_case_02" transform="translate(-60.000000, -40.000000)" fill="#ffffff">
            <g id="Header">
                <g id="NoA-small-logo" transform="translate(60.000000, 40.000000)">
                    <path d="M91.5275613,0.616784516 L76.8765677,43.9010168 L87.6384774,43.9010168 L89.7851613,36.7151071 L106.511303,36.7151071 L108.926942,43.9010168 L119.998529,43.9010168 L103.991458,0.616784516 L91.5275613,0.616784516 Z M97.6551484,10.3722426 L103.328284,27.2468748 L92.6139097,27.2468748 L97.6551484,10.3722426 Z" id="Fill-1"></path>
                    <polygon id="Fill-2" points="28.8939716 0.616784516 28.8939716 28.3617135 11.3795458 0.616784516 -1.54838708e-05 0.616784516 -1.54838708e-05 43.9010168 9.87853935 43.9010168 9.87853935 16.6267974 27.1001652 43.9010168 38.7725265 43.9010168 38.7725265 0.616784516"></polygon>
                    <path d="M61.7214813,25.2435097 C57.403649,25.2435097 53.8911329,21.7308387 53.8911329,17.4128516 C53.8911329,13.0951742 57.403649,9.58250323 61.7214813,9.58250323 C66.0393135,9.58250323 69.5518297,13.0951742 69.5518297,17.4128516 C69.5518297,21.7308387 66.0393135,25.2435097 61.7214813,25.2435097 M61.7214813,-7.10542736e-15 C52.1199329,-7.10542736e-15 44.30832,7.81130323 44.30832,17.4130065 C44.30832,27.0145548 52.1199329,34.8260129 61.7214813,34.8260129 C71.3230297,34.8260129 79.1346426,27.0145548 79.1346426,17.4130065 C79.1346426,7.81130323 71.3230297,-7.10542736e-15 61.7214813,-7.10542736e-15" id="Fill-3"></path>
                </g>
            </g>
        </g>
    </g>
</svg>